# xmcd
#
# Track frame offsets: 
#        150
#        11101
#        28073
#        38060
#        56068
#        77223
#        91622
#        114265
#        126363
#        141620
#        160360
#        174741
#        189689
#        208337
#        228314
#        242815
#
# Disc length: 3389 seconds
#
# Revision: 0
# Processed by: cddbd v1.5.2PL0 Copyright (c) Steve Scherf et al.
# Submitted via: ExactAudioCopyFreeDBPlugin 1.0
#
DISCID=e50d3b10
DTITLE=Vali "Sirblues" Racila - Stay styx-ed to the Blues
DYEAR=2015
DGENRE=Blues
TTITLE0=Happy meeting in glory
TTITLE1=The girl I love
TTITLE2=Nobody's dirty business
TTITLE3=You gotta move
TTITLE4=44 Blues
TTITLE5=Let the mermaids flirt with me
TTITLE6=Makin' whoopee
TTITLE7=Sittin' on top of the world
TTITLE8=Every day I have the blues
TTITLE9=Ragged and dirty
TTITLE10=Viola Lee Blues
TTITLE11=Bourgeois Blues
TTITLE12=Rollin' and Tumblin'
TTITLE13=Poor boy long ways from home
TTITLE14=Two white horses
TTITLE15=Song from Moulin Rouge
EXTD=
EXTT0=
EXTT1=
EXTT2=
EXTT3=
EXTT4=
EXTT5=
EXTT6=
EXTT7=
EXTT8=
EXTT9=
EXTT10=
EXTT11=
EXTT12=
EXTT13=
EXTT14=
EXTT15=
PLAYORDER=
